<mxfile host="app.diagrams.net" modified="2020-11-17T16:42:18.722Z" agent="5.0 (Windows NT 10.0; Win64; x64) AppleWebKit/537.36 (KHTML, like Gecko) Chrome/86.0.4240.198 Safari/537.36" etag="fWZRns7UDSje6Eky-oGB" version="13.9.3" type="github">
  <diagram id="5WppHRCJ7_SfIzXFLDq0" name="Page-1">
    <mxGraphModel dx="680" dy="784" grid="1" gridSize="10" guides="1" tooltips="1" connect="1" arrows="1" fold="1" page="1" pageScale="1" pageWidth="1169" pageHeight="827" math="0" shadow="0">
      <root>
        <mxCell id="0" />
        <mxCell id="1" parent="0" />
        <mxCell id="L20JCUs4-hli7f1_nL3h-62" value="" style="rounded=0;whiteSpace=wrap;html=1;" parent="1" vertex="1">
          <mxGeometry x="240" y="1250" width="740" height="380" as="geometry" />
        </mxCell>
        <mxCell id="L20JCUs4-hli7f1_nL3h-1" value="&lt;div style=&quot;font-size: 17px&quot;&gt;&lt;b&gt;&lt;span lang=&quot;pl&quot; style=&quot;line-height: 115%&quot;&gt;Ekosystem dla obsługi zakupów on-line&lt;/span&gt;&lt;/b&gt;&lt;/div&gt;&lt;div&gt;&lt;i&gt;&lt;font style=&quot;font-size: 12px&quot;&gt;rok akademicki 2020/21, semestr zimowy&lt;/font&gt;&lt;/i&gt;&lt;/div&gt;" style="rounded=0;whiteSpace=wrap;html=1;fillColor=#dae8fc;strokeColor=#6c8ebf;fontFamily=Helvetica;align=center;fontSize=17;" parent="1" vertex="1">
          <mxGeometry x="32.5" y="10" width="1110" height="60" as="geometry" />
        </mxCell>
        <mxCell id="L20JCUs4-hli7f1_nL3h-2" value="&lt;div&gt;&lt;font&gt;&lt;b&gt;Karol Lech&lt;/b&gt;&lt;/font&gt;&lt;/div&gt;&lt;div&gt;&lt;font&gt;&lt;b&gt;Przemysław Pleśniarski&lt;/b&gt;&lt;/font&gt;&lt;/div&gt;&lt;div&gt;&lt;font&gt;&lt;b&gt;Krzysztof Podkulski&lt;/b&gt;&lt;/font&gt;&lt;/div&gt;&lt;div&gt;&lt;b&gt;Marcin Wielgos&lt;/b&gt;&lt;/div&gt;&lt;div&gt;&lt;u&gt;&lt;i&gt;LAB 3&lt;/i&gt;&lt;/u&gt;&lt;/div&gt;" style="rounded=0;whiteSpace=wrap;html=1;fillColor=#dae8fc;strokeColor=#6c8ebf;align=right;fontFamily=Helvetica;labelBackgroundColor=none;labelBorderColor=none;strokeWidth=1;glass=0;shadow=0;sketch=0;" parent="1" vertex="1">
          <mxGeometry x="912.5" y="80" width="230" height="110" as="geometry" />
        </mxCell>
        <mxCell id="L20JCUs4-hli7f1_nL3h-3" value="" style="rounded=0;whiteSpace=wrap;html=1;align=left;fontFamily=Helvetica;labelBackgroundColor=none;labelBorderColor=none;strokeWidth=1;glass=0;shadow=0;sketch=0;fillColor=#f5f5f5;strokeColor=#666666;fontColor=#333333;" parent="1" vertex="1">
          <mxGeometry x="32.5" y="80" width="870" height="110" as="geometry" />
        </mxCell>
        <mxCell id="L20JCUs4-hli7f1_nL3h-4" value="" style="rounded=0;whiteSpace=wrap;html=1;" parent="1" vertex="1">
          <mxGeometry x="310" y="280" width="470" height="390" as="geometry" />
        </mxCell>
        <mxCell id="L20JCUs4-hli7f1_nL3h-28" style="edgeStyle=orthogonalEdgeStyle;rounded=0;orthogonalLoop=1;jettySize=auto;html=1;exitX=0.5;exitY=0.5;exitDx=0;exitDy=0;exitPerimeter=0;entryX=0;entryY=0.5;entryDx=0;entryDy=0;" parent="1" source="L20JCUs4-hli7f1_nL3h-10" target="dglWdo54yami3UqNpxAt-2" edge="1">
          <mxGeometry relative="1" as="geometry">
            <Array as="points">
              <mxPoint x="330" y="550" />
              <mxPoint x="330" y="520" />
            </Array>
          </mxGeometry>
        </mxCell>
        <mxCell id="L20JCUs4-hli7f1_nL3h-10" value="Użytkownik" style="shape=umlActor;verticalLabelPosition=bottom;verticalAlign=top;html=1;outlineConnect=0;" parent="1" vertex="1">
          <mxGeometry x="240" y="520" width="30" height="60" as="geometry" />
        </mxCell>
        <mxCell id="L20JCUs4-hli7f1_nL3h-29" style="edgeStyle=orthogonalEdgeStyle;rounded=0;orthogonalLoop=1;jettySize=auto;html=1;entryX=0;entryY=0.5;entryDx=0;entryDy=0;exitX=0.5;exitY=0.5;exitDx=0;exitDy=0;exitPerimeter=0;" parent="1" source="L20JCUs4-hli7f1_nL3h-21" target="L20JCUs4-hli7f1_nL3h-17" edge="1">
          <mxGeometry relative="1" as="geometry">
            <mxPoint x="390" y="460" as="targetPoint" />
            <Array as="points">
              <mxPoint x="180" y="390" />
              <mxPoint x="180" y="340" />
              <mxPoint x="330" y="340" />
              <mxPoint x="330" y="390" />
              <mxPoint x="400" y="390" />
            </Array>
            <mxPoint x="160" y="400" as="sourcePoint" />
          </mxGeometry>
        </mxCell>
        <mxCell id="L20JCUs4-hli7f1_nL3h-13" value="Mikroserwis autoryzacji" style="text;html=1;strokeColor=#b85450;fillColor=#f8cecc;align=center;verticalAlign=middle;whiteSpace=wrap;rounded=0;" parent="1" vertex="1">
          <mxGeometry x="487.5" y="290" width="105" height="50" as="geometry" />
        </mxCell>
        <mxCell id="L20JCUs4-hli7f1_nL3h-27" style="edgeStyle=orthogonalEdgeStyle;rounded=0;orthogonalLoop=1;jettySize=auto;html=1;exitX=0.5;exitY=0.5;exitDx=0;exitDy=0;exitPerimeter=0;entryX=0.5;entryY=0.5;entryDx=0;entryDy=0;entryPerimeter=0;" parent="1" source="L20JCUs4-hli7f1_nL3h-15" target="L20JCUs4-hli7f1_nL3h-10" edge="1">
          <mxGeometry relative="1" as="geometry" />
        </mxCell>
        <mxCell id="L20JCUs4-hli7f1_nL3h-15" value="Mikroserwis&lt;br&gt;sklepów" style="shape=umlActor;verticalLabelPosition=bottom;verticalAlign=top;html=1;outlineConnect=0;" parent="1" vertex="1">
          <mxGeometry x="120" y="520" width="30" height="60" as="geometry" />
        </mxCell>
        <mxCell id="L20JCUs4-hli7f1_nL3h-30" style="edgeStyle=orthogonalEdgeStyle;rounded=0;orthogonalLoop=1;jettySize=auto;html=1;exitX=1;exitY=0.5;exitDx=0;exitDy=0;entryX=0;entryY=0.5;entryDx=0;entryDy=0;" parent="1" source="L20JCUs4-hli7f1_nL3h-17" target="L20JCUs4-hli7f1_nL3h-18" edge="1">
          <mxGeometry relative="1" as="geometry" />
        </mxCell>
        <mxCell id="L20JCUs4-hli7f1_nL3h-17" value="Autoryzacja serwisu" style="ellipse;whiteSpace=wrap;html=1;" parent="1" vertex="1">
          <mxGeometry x="400" y="350" width="120" height="80" as="geometry" />
        </mxCell>
        <mxCell id="L20JCUs4-hli7f1_nL3h-18" value="Lista magazynów, do których można się zalogować" style="ellipse;whiteSpace=wrap;html=1;" parent="1" vertex="1">
          <mxGeometry x="560" y="345" width="125" height="90" as="geometry" />
        </mxCell>
        <mxCell id="L20JCUs4-hli7f1_nL3h-24" style="edgeStyle=orthogonalEdgeStyle;rounded=0;orthogonalLoop=1;jettySize=auto;html=1;exitX=0.5;exitY=0.5;exitDx=0;exitDy=0;exitPerimeter=0;entryX=0.5;entryY=0.5;entryDx=0;entryDy=0;entryPerimeter=0;" parent="1" source="L20JCUs4-hli7f1_nL3h-20" edge="1">
          <mxGeometry relative="1" as="geometry">
            <mxPoint x="265" y="340" as="targetPoint" />
          </mxGeometry>
        </mxCell>
        <mxCell id="L20JCUs4-hli7f1_nL3h-20" value="Mikroserwis produktów" style="shape=umlActor;verticalLabelPosition=bottom;verticalAlign=top;html=1;outlineConnect=0;" parent="1" vertex="1">
          <mxGeometry x="120" y="260" width="30" height="60" as="geometry" />
        </mxCell>
        <mxCell id="L20JCUs4-hli7f1_nL3h-21" value="Mikroserwis magazynów" style="shape=umlActor;verticalLabelPosition=bottom;verticalAlign=top;html=1;outlineConnect=0;" parent="1" vertex="1">
          <mxGeometry x="120" y="360" width="30" height="60" as="geometry" />
        </mxCell>
        <mxCell id="L20JCUs4-hli7f1_nL3h-32" value="przechowywanie/&lt;br&gt;udostępnianie&lt;br&gt;danych&lt;br&gt;o użytkownikach" style="ellipse;whiteSpace=wrap;html=1;" parent="1" vertex="1">
          <mxGeometry x="397.5" y="580" width="132.5" height="80" as="geometry" />
        </mxCell>
        <mxCell id="L20JCUs4-hli7f1_nL3h-34" value="" style="rounded=0;whiteSpace=wrap;html=1;" parent="1" vertex="1">
          <mxGeometry x="305" y="840" width="470" height="250" as="geometry" />
        </mxCell>
        <mxCell id="L20JCUs4-hli7f1_nL3h-35" value="Mikroserwis produktów" style="text;html=1;strokeColor=#b85450;fillColor=#f8cecc;align=center;verticalAlign=middle;whiteSpace=wrap;rounded=0;" parent="1" vertex="1">
          <mxGeometry x="517.5" y="850" width="92.5" height="40" as="geometry" />
        </mxCell>
        <mxCell id="L20JCUs4-hli7f1_nL3h-46" style="edgeStyle=orthogonalEdgeStyle;rounded=0;orthogonalLoop=1;jettySize=auto;html=1;exitX=0.5;exitY=0.5;exitDx=0;exitDy=0;exitPerimeter=0;entryX=0;entryY=0.5;entryDx=0;entryDy=0;" parent="1" target="L20JCUs4-hli7f1_nL3h-40" edge="1">
          <mxGeometry relative="1" as="geometry">
            <Array as="points">
              <mxPoint x="235" y="910" />
              <mxPoint x="350" y="910" />
            </Array>
            <mxPoint x="235" y="900" as="sourcePoint" />
          </mxGeometry>
        </mxCell>
        <mxCell id="L20JCUs4-hli7f1_nL3h-37" value="Mikroserwis&lt;br&gt;sklepów" style="shape=umlActor;verticalLabelPosition=bottom;verticalAlign=top;html=1;outlineConnect=0;" parent="1" vertex="1">
          <mxGeometry x="220" y="980" width="30" height="70" as="geometry" />
        </mxCell>
        <mxCell id="L20JCUs4-hli7f1_nL3h-40" value="CRUD" style="ellipse;whiteSpace=wrap;html=1;" parent="1" vertex="1">
          <mxGeometry x="350" y="910" width="120" height="50" as="geometry" />
        </mxCell>
        <mxCell id="L20JCUs4-hli7f1_nL3h-41" value="Pobieranie produktu:&lt;br&gt;Nazwa, cena, EAN, waga, wymiary" style="ellipse;whiteSpace=wrap;html=1;" parent="1" vertex="1">
          <mxGeometry x="367.5" y="990" width="170" height="70" as="geometry" />
        </mxCell>
        <mxCell id="L20JCUs4-hli7f1_nL3h-45" style="edgeStyle=orthogonalEdgeStyle;rounded=0;orthogonalLoop=1;jettySize=auto;html=1;exitX=0.5;exitY=0;exitDx=0;exitDy=0;entryX=1;entryY=0.5;entryDx=0;entryDy=0;entryPerimeter=0;" parent="1" source="L20JCUs4-hli7f1_nL3h-44" target="L20JCUs4-hli7f1_nL3h-40" edge="1">
          <mxGeometry relative="1" as="geometry">
            <mxPoint x="465" y="905" as="targetPoint" />
            <Array as="points">
              <mxPoint x="545" y="900" />
              <mxPoint x="490" y="900" />
              <mxPoint x="490" y="905" />
            </Array>
          </mxGeometry>
        </mxCell>
        <mxCell id="L20JCUs4-hli7f1_nL3h-44" value="Promocje, oferty specjalne" style="ellipse;whiteSpace=wrap;html=1;" parent="1" vertex="1">
          <mxGeometry x="485" y="920" width="120" height="50" as="geometry" />
        </mxCell>
        <mxCell id="L20JCUs4-hli7f1_nL3h-49" value="" style="rounded=0;whiteSpace=wrap;html=1;" parent="1" vertex="1">
          <mxGeometry x="240" y="1640" width="740" height="420" as="geometry" />
        </mxCell>
        <mxCell id="L20JCUs4-hli7f1_nL3h-50" value="Mikroserwis magazynów" style="text;html=1;strokeColor=#b85450;fillColor=#f8cecc;align=center;verticalAlign=middle;whiteSpace=wrap;rounded=0;" parent="1" vertex="1">
          <mxGeometry x="565" y="1690" width="142.5" height="20" as="geometry" />
        </mxCell>
        <mxCell id="L20JCUs4-hli7f1_nL3h-51" value="Administrator" style="shape=umlActor;verticalLabelPosition=bottom;verticalAlign=top;html=1;outlineConnect=0;" parent="1" vertex="1">
          <mxGeometry x="170" y="1950" width="30" height="60" as="geometry" />
        </mxCell>
        <mxCell id="L20JCUs4-hli7f1_nL3h-55" value="Panel administratora" style="ellipse;whiteSpace=wrap;html=1;" parent="1" vertex="1">
          <mxGeometry x="497.5" y="1393" width="120" height="27" as="geometry" />
        </mxCell>
        <mxCell id="L20JCUs4-hli7f1_nL3h-56" value="Wybór kategorii produktów na sklep" style="ellipse;whiteSpace=wrap;html=1;" parent="1" vertex="1">
          <mxGeometry x="367.5" y="1310" width="140" height="40" as="geometry" />
        </mxCell>
        <mxCell id="L20JCUs4-hli7f1_nL3h-57" value="Wybór motywu&lt;br&gt;kolorystycznego" style="ellipse;whiteSpace=wrap;html=1;" parent="1" vertex="1">
          <mxGeometry x="537.5" y="1310" width="120" height="35" as="geometry" />
        </mxCell>
        <mxCell id="L20JCUs4-hli7f1_nL3h-63" value="Mikroserwis sklepów internetowych" style="text;html=1;strokeColor=#b85450;fillColor=#f8cecc;align=center;verticalAlign=middle;whiteSpace=wrap;rounded=0;" parent="1" vertex="1">
          <mxGeometry x="447.5" y="1270" width="242.5" height="20" as="geometry" />
        </mxCell>
        <mxCell id="L20JCUs4-hli7f1_nL3h-84" style="edgeStyle=orthogonalEdgeStyle;rounded=0;orthogonalLoop=1;jettySize=auto;html=1;exitX=0.5;exitY=0.5;exitDx=0;exitDy=0;exitPerimeter=0;entryX=0;entryY=0.5;entryDx=0;entryDy=0;" parent="1" source="L20JCUs4-hli7f1_nL3h-64" target="L20JCUs4-hli7f1_nL3h-55" edge="1">
          <mxGeometry relative="1" as="geometry" />
        </mxCell>
        <mxCell id="L20JCUs4-hli7f1_nL3h-64" value="Administrator" style="shape=umlActor;verticalLabelPosition=bottom;verticalAlign=top;html=1;outlineConnect=0;" parent="1" vertex="1">
          <mxGeometry x="170" y="1260" width="30" height="60" as="geometry" />
        </mxCell>
        <mxCell id="L20JCUs4-hli7f1_nL3h-87" style="edgeStyle=orthogonalEdgeStyle;rounded=0;orthogonalLoop=1;jettySize=auto;html=1;exitX=0.5;exitY=0.5;exitDx=0;exitDy=0;exitPerimeter=0;" parent="1" source="L20JCUs4-hli7f1_nL3h-66" edge="1">
          <mxGeometry relative="1" as="geometry">
            <mxPoint x="230" y="1510" as="targetPoint" />
          </mxGeometry>
        </mxCell>
        <mxCell id="L20JCUs4-hli7f1_nL3h-66" value="Użytkownik" style="shape=umlActor;verticalLabelPosition=bottom;verticalAlign=top;html=1;outlineConnect=0;" parent="1" vertex="1">
          <mxGeometry x="170" y="1460" width="30" height="60" as="geometry" />
        </mxCell>
        <mxCell id="L20JCUs4-hli7f1_nL3h-71" value="Koszyk" style="ellipse;whiteSpace=wrap;html=1;" parent="1" vertex="1">
          <mxGeometry x="560" y="1470" width="120" height="40" as="geometry" />
        </mxCell>
        <mxCell id="L20JCUs4-hli7f1_nL3h-90" style="edgeStyle=orthogonalEdgeStyle;rounded=0;orthogonalLoop=1;jettySize=auto;html=1;exitX=0;exitY=0.5;exitDx=0;exitDy=0;" parent="1" source="L20JCUs4-hli7f1_nL3h-73" edge="1">
          <mxGeometry relative="1" as="geometry">
            <mxPoint x="320" y="1510" as="targetPoint" />
          </mxGeometry>
        </mxCell>
        <mxCell id="L20JCUs4-hli7f1_nL3h-73" value="Podgląd historii zamówień per użytkownik" style="ellipse;whiteSpace=wrap;html=1;" parent="1" vertex="1">
          <mxGeometry x="350" y="1550" width="120" height="50" as="geometry" />
        </mxCell>
        <mxCell id="L20JCUs4-hli7f1_nL3h-88" style="edgeStyle=orthogonalEdgeStyle;rounded=0;orthogonalLoop=1;jettySize=auto;html=1;exitX=0;exitY=0.5;exitDx=0;exitDy=0;" parent="1" source="L20JCUs4-hli7f1_nL3h-75" edge="1">
          <mxGeometry relative="1" as="geometry">
            <mxPoint x="320" y="1510" as="targetPoint" />
          </mxGeometry>
        </mxCell>
        <mxCell id="L20JCUs4-hli7f1_nL3h-111" style="edgeStyle=orthogonalEdgeStyle;rounded=0;orthogonalLoop=1;jettySize=auto;html=1;exitX=0.5;exitY=1;exitDx=0;exitDy=0;entryX=0.5;entryY=0;entryDx=0;entryDy=0;" parent="1" source="L20JCUs4-hli7f1_nL3h-75" target="L20JCUs4-hli7f1_nL3h-76" edge="1">
          <mxGeometry relative="1" as="geometry" />
        </mxCell>
        <mxCell id="L20JCUs4-hli7f1_nL3h-75" value="Wyszukiwanie&lt;br&gt;produktów w sklepie" style="ellipse;whiteSpace=wrap;html=1;" parent="1" vertex="1">
          <mxGeometry x="335" y="1430" width="160" height="40" as="geometry" />
        </mxCell>
        <mxCell id="L20JCUs4-hli7f1_nL3h-76" value="Złożenie zamówienia" style="ellipse;whiteSpace=wrap;html=1;" parent="1" vertex="1">
          <mxGeometry x="350" y="1490" width="120" height="40" as="geometry" />
        </mxCell>
        <mxCell id="L20JCUs4-hli7f1_nL3h-78" value="Statusy" style="ellipse;whiteSpace=wrap;html=1;" parent="1" vertex="1">
          <mxGeometry x="508.75" y="1540" width="120" height="30" as="geometry" />
        </mxCell>
        <mxCell id="L20JCUs4-hli7f1_nL3h-86" value="" style="endArrow=none;html=1;entryX=0;entryY=0.5;entryDx=0;entryDy=0;" parent="1" edge="1" target="L20JCUs4-hli7f1_nL3h-76">
          <mxGeometry width="50" height="50" relative="1" as="geometry">
            <mxPoint x="230" y="1510" as="sourcePoint" />
            <mxPoint x="320" y="1510" as="targetPoint" />
          </mxGeometry>
        </mxCell>
        <mxCell id="L20JCUs4-hli7f1_nL3h-92" value="Ewidencja wszystkich zamówień&lt;br&gt;złożone, realizowane, wyszukiwanie zamówień przypisanych do użytkownika" style="ellipse;whiteSpace=wrap;html=1;" parent="1" vertex="1">
          <mxGeometry x="662.5" y="1380" width="250" height="80" as="geometry" />
        </mxCell>
        <mxCell id="L20JCUs4-hli7f1_nL3h-94" value="Dostępność na magazynie&lt;br&gt;Ilość, w jakim magazynie się znajduje, dostępna" style="ellipse;whiteSpace=wrap;html=1;" parent="1" vertex="1">
          <mxGeometry x="285" y="1710" width="245" height="50" as="geometry" />
        </mxCell>
        <mxCell id="L20JCUs4-hli7f1_nL3h-96" value="" style="endArrow=none;dashed=1;html=1;dashPattern=1 3;strokeWidth=2;entryX=1;entryY=0.5;entryDx=0;entryDy=0;exitX=1;exitY=0.5;exitDx=0;exitDy=0;" parent="1" source="L20JCUs4-hli7f1_nL3h-79" target="L20JCUs4-hli7f1_nL3h-94" edge="1">
          <mxGeometry width="50" height="50" relative="1" as="geometry">
            <mxPoint x="550" y="1480" as="sourcePoint" />
            <mxPoint x="600" y="1430" as="targetPoint" />
          </mxGeometry>
        </mxCell>
        <mxCell id="L20JCUs4-hli7f1_nL3h-97" value="Include" style="edgeLabel;html=1;align=center;verticalAlign=middle;resizable=0;points=[];" parent="L20JCUs4-hli7f1_nL3h-96" vertex="1" connectable="0">
          <mxGeometry x="0.5335" y="1" relative="1" as="geometry">
            <mxPoint x="4.38" y="21.21" as="offset" />
          </mxGeometry>
        </mxCell>
        <mxCell id="L20JCUs4-hli7f1_nL3h-98" value="Marża" style="ellipse;whiteSpace=wrap;html=1;" parent="1" vertex="1">
          <mxGeometry x="697.5" y="1310" width="120" height="35" as="geometry" />
        </mxCell>
        <mxCell id="L20JCUs4-hli7f1_nL3h-104" value="Informacje o kosztach dostawy" style="ellipse;whiteSpace=wrap;html=1;" parent="1" vertex="1">
          <mxGeometry x="315" y="1870" width="140" height="80" as="geometry" />
        </mxCell>
        <mxCell id="L20JCUs4-hli7f1_nL3h-117" style="edgeStyle=orthogonalEdgeStyle;rounded=0;orthogonalLoop=1;jettySize=auto;html=1;exitX=0;exitY=0.5;exitDx=0;exitDy=0;entryX=0.5;entryY=0.5;entryDx=0;entryDy=0;entryPerimeter=0;" parent="1" source="L20JCUs4-hli7f1_nL3h-112" target="L20JCUs4-hli7f1_nL3h-51" edge="1">
          <mxGeometry relative="1" as="geometry" />
        </mxCell>
        <mxCell id="L20JCUs4-hli7f1_nL3h-112" value="Panel administratora" style="ellipse;whiteSpace=wrap;html=1;" parent="1" vertex="1">
          <mxGeometry x="315" y="2000" width="140" height="40" as="geometry" />
        </mxCell>
        <mxCell id="L20JCUs4-hli7f1_nL3h-113" value="CRUD" style="ellipse;whiteSpace=wrap;html=1;" parent="1" vertex="1">
          <mxGeometry x="502.5" y="2026" width="162.5" height="42" as="geometry" />
        </mxCell>
        <mxCell id="L20JCUs4-hli7f1_nL3h-114" value="Zarządzanie ilością (uzupełnianie magazynu)" style="ellipse;whiteSpace=wrap;html=1;" parent="1" vertex="1">
          <mxGeometry x="505" y="1950" width="160" height="50" as="geometry" />
        </mxCell>
        <mxCell id="L20JCUs4-hli7f1_nL3h-119" style="edgeStyle=orthogonalEdgeStyle;rounded=0;orthogonalLoop=1;jettySize=auto;html=1;exitX=0.5;exitY=0.5;exitDx=0;exitDy=0;exitPerimeter=0;entryX=0;entryY=0.5;entryDx=0;entryDy=0;" parent="1" source="L20JCUs4-hli7f1_nL3h-118" target="L20JCUs4-hli7f1_nL3h-94" edge="1">
          <mxGeometry relative="1" as="geometry">
            <Array as="points">
              <mxPoint x="260" y="1780" />
              <mxPoint x="260" y="1735" />
            </Array>
          </mxGeometry>
        </mxCell>
        <mxCell id="L20JCUs4-hli7f1_nL3h-120" style="edgeStyle=orthogonalEdgeStyle;rounded=0;orthogonalLoop=1;jettySize=auto;html=1;exitX=0.5;exitY=0.5;exitDx=0;exitDy=0;exitPerimeter=0;entryX=0;entryY=0.5;entryDx=0;entryDy=0;" parent="1" source="L20JCUs4-hli7f1_nL3h-118" target="L20JCUs4-hli7f1_nL3h-104" edge="1">
          <mxGeometry relative="1" as="geometry">
            <Array as="points">
              <mxPoint x="260" y="1780" />
              <mxPoint x="260" y="1910" />
            </Array>
          </mxGeometry>
        </mxCell>
        <mxCell id="L20JCUs4-hli7f1_nL3h-118" value="Mikroserwis sklepów&lt;br&gt;[Wyszukiwarka, koszyk]" style="shape=umlActor;verticalLabelPosition=bottom;verticalAlign=top;html=1;outlineConnect=0;" parent="1" vertex="1">
          <mxGeometry x="130" y="1750" width="30" height="60" as="geometry" />
        </mxCell>
        <mxCell id="dglWdo54yami3UqNpxAt-2" value="Autoryzacja użytkownika" style="ellipse;whiteSpace=wrap;html=1;" parent="1" vertex="1">
          <mxGeometry x="397.5" y="480" width="120" height="80" as="geometry" />
        </mxCell>
        <mxCell id="dglWdo54yami3UqNpxAt-3" style="edgeStyle=orthogonalEdgeStyle;rounded=0;orthogonalLoop=1;jettySize=auto;html=1;exitX=0.5;exitY=0;exitDx=0;exitDy=0;entryX=0.5;entryY=1;entryDx=0;entryDy=0;" parent="1" source="L20JCUs4-hli7f1_nL3h-32" target="dglWdo54yami3UqNpxAt-2" edge="1">
          <mxGeometry relative="1" as="geometry">
            <mxPoint x="460" y="530" as="sourcePoint" />
            <mxPoint x="460" y="420" as="targetPoint" />
          </mxGeometry>
        </mxCell>
        <mxCell id="-uXi19Nw9KmrG-sfpI9Z-2" value="Mikroserwis&lt;br&gt;magazynowy" style="shape=umlActor;verticalLabelPosition=bottom;verticalAlign=top;html=1;outlineConnect=0;" vertex="1" parent="1">
          <mxGeometry x="220" y="870" width="30" height="70" as="geometry" />
        </mxCell>
        <mxCell id="-uXi19Nw9KmrG-sfpI9Z-3" style="edgeStyle=orthogonalEdgeStyle;rounded=0;orthogonalLoop=1;jettySize=auto;html=1;exitX=0.5;exitY=0.5;exitDx=0;exitDy=0;exitPerimeter=0;" edge="1" parent="1">
          <mxGeometry relative="1" as="geometry">
            <Array as="points">
              <mxPoint x="365" y="1023" />
              <mxPoint x="365" y="1023" />
            </Array>
            <mxPoint x="240" y="1022.5" as="sourcePoint" />
            <mxPoint x="370" y="1022.5" as="targetPoint" />
          </mxGeometry>
        </mxCell>
        <mxCell id="-uXi19Nw9KmrG-sfpI9Z-6" value="autoryzacja" style="ellipse;whiteSpace=wrap;html=1;" vertex="1" parent="1">
          <mxGeometry x="381.25" y="850" width="77.5" height="20" as="geometry" />
        </mxCell>
        <mxCell id="-uXi19Nw9KmrG-sfpI9Z-10" value="" style="endArrow=none;dashed=1;html=1;dashPattern=1 3;strokeWidth=2;exitX=0.5;exitY=1;exitDx=0;exitDy=0;entryX=0.5;entryY=0;entryDx=0;entryDy=0;" edge="1" parent="1" source="-uXi19Nw9KmrG-sfpI9Z-6" target="L20JCUs4-hli7f1_nL3h-40">
          <mxGeometry width="50" height="50" relative="1" as="geometry">
            <mxPoint x="420" y="820" as="sourcePoint" />
            <mxPoint x="418.75" y="884.6666666666667" as="targetPoint" />
            <Array as="points" />
          </mxGeometry>
        </mxCell>
        <mxCell id="-uXi19Nw9KmrG-sfpI9Z-12" value="include" style="text;html=1;strokeColor=none;fillColor=none;align=center;verticalAlign=middle;whiteSpace=wrap;rounded=0;" vertex="1" parent="1">
          <mxGeometry x="400" y="870" width="40" height="20" as="geometry" />
        </mxCell>
        <mxCell id="-uXi19Nw9KmrG-sfpI9Z-13" value="" style="endArrow=none;dashed=1;html=1;dashPattern=1 3;strokeWidth=2;exitX=0.939;exitY=0.85;exitDx=0;exitDy=0;entryX=0.568;entryY=0.029;entryDx=0;entryDy=0;entryPerimeter=0;exitPerimeter=0;" edge="1" parent="1" source="-uXi19Nw9KmrG-sfpI9Z-6" target="L20JCUs4-hli7f1_nL3h-41">
          <mxGeometry width="50" height="50" relative="1" as="geometry">
            <mxPoint x="430" y="880" as="sourcePoint" />
            <mxPoint x="420" y="920" as="targetPoint" />
            <Array as="points" />
          </mxGeometry>
        </mxCell>
        <mxCell id="-uXi19Nw9KmrG-sfpI9Z-14" value="include" style="text;html=1;strokeColor=none;fillColor=none;align=center;verticalAlign=middle;whiteSpace=wrap;rounded=0;" vertex="1" parent="1">
          <mxGeometry x="447.5" y="960" width="40" height="20" as="geometry" />
        </mxCell>
        <mxCell id="-uXi19Nw9KmrG-sfpI9Z-18" value="Extends" style="endArrow=block;endSize=16;endFill=0;html=1;entryX=0;entryY=0;entryDx=0;entryDy=0;" edge="1" parent="1" source="L20JCUs4-hli7f1_nL3h-56" target="L20JCUs4-hli7f1_nL3h-55">
          <mxGeometry width="160" relative="1" as="geometry">
            <mxPoint x="390" y="1393" as="sourcePoint" />
            <mxPoint x="520" y="1393" as="targetPoint" />
          </mxGeometry>
        </mxCell>
        <mxCell id="-uXi19Nw9KmrG-sfpI9Z-19" value="Extends" style="endArrow=block;endSize=16;endFill=0;html=1;entryX=0.446;entryY=0.037;entryDx=0;entryDy=0;entryPerimeter=0;" edge="1" parent="1" target="L20JCUs4-hli7f1_nL3h-55">
          <mxGeometry width="160" relative="1" as="geometry">
            <mxPoint x="569.8014397562754" y="1344.9957429430322" as="sourcePoint" />
            <mxPoint x="625.0007871905111" y="1393.105837224611" as="targetPoint" />
          </mxGeometry>
        </mxCell>
        <mxCell id="-uXi19Nw9KmrG-sfpI9Z-20" value="Extends" style="endArrow=block;endSize=16;endFill=0;html=1;entryX=1;entryY=0;entryDx=0;entryDy=0;" edge="1" parent="1" target="L20JCUs4-hli7f1_nL3h-55">
          <mxGeometry width="160" relative="1" as="geometry">
            <mxPoint x="697.5014397562754" y="1329.9957429430324" as="sourcePoint" />
            <mxPoint x="678.72" y="1378.9989999999998" as="targetPoint" />
          </mxGeometry>
        </mxCell>
        <mxCell id="-uXi19Nw9KmrG-sfpI9Z-21" value="Extends" style="endArrow=block;endSize=16;endFill=0;html=1;entryX=1;entryY=0.5;entryDx=0;entryDy=0;" edge="1" parent="1" target="L20JCUs4-hli7f1_nL3h-55">
          <mxGeometry x="-0.3575" y="-6" width="160" relative="1" as="geometry">
            <mxPoint x="662.5014397562754" y="1415.4957429430324" as="sourcePoint" />
            <mxPoint x="620" y="1407" as="targetPoint" />
            <mxPoint as="offset" />
          </mxGeometry>
        </mxCell>
        <mxCell id="-uXi19Nw9KmrG-sfpI9Z-22" value="Extends" style="endArrow=block;endSize=16;endFill=0;html=1;exitX=0;exitY=0.5;exitDx=0;exitDy=0;" edge="1" parent="1" source="L20JCUs4-hli7f1_nL3h-78" target="L20JCUs4-hli7f1_nL3h-73">
          <mxGeometry x="0.6175" y="-13" width="160" relative="1" as="geometry">
            <mxPoint x="505.0014397562754" y="1550.9957429430324" as="sourcePoint" />
            <mxPoint x="486.21999999999997" y="1599.9989999999998" as="targetPoint" />
            <mxPoint as="offset" />
          </mxGeometry>
        </mxCell>
        <mxCell id="-uXi19Nw9KmrG-sfpI9Z-24" value="Extends" style="endArrow=block;endSize=16;endFill=0;html=1;exitX=0;exitY=0;exitDx=0;exitDy=0;entryX=1;entryY=0.5;entryDx=0;entryDy=0;" edge="1" parent="1" source="L20JCUs4-hli7f1_nL3h-79" target="L20JCUs4-hli7f1_nL3h-73">
          <mxGeometry x="-0.3381" y="-16" width="160" relative="1" as="geometry">
            <mxPoint x="535" y="1565" as="sourcePoint" />
            <mxPoint x="475.37035982122393" y="1575.3703722050045" as="targetPoint" />
            <mxPoint as="offset" />
          </mxGeometry>
        </mxCell>
        <mxCell id="-uXi19Nw9KmrG-sfpI9Z-36" style="edgeStyle=orthogonalEdgeStyle;rounded=0;orthogonalLoop=1;jettySize=auto;html=1;exitX=1;exitY=0.5;exitDx=0;exitDy=0;" edge="1" parent="1" source="L20JCUs4-hli7f1_nL3h-79">
          <mxGeometry relative="1" as="geometry">
            <mxPoint x="590" y="1605" as="targetPoint" />
          </mxGeometry>
        </mxCell>
        <mxCell id="L20JCUs4-hli7f1_nL3h-79" value="Faktury" style="ellipse;whiteSpace=wrap;html=1;" parent="1" vertex="1">
          <mxGeometry x="480" y="1590" width="120" height="30" as="geometry" />
        </mxCell>
        <mxCell id="-uXi19Nw9KmrG-sfpI9Z-25" value="" style="endArrow=none;dashed=1;html=1;dashPattern=1 3;strokeWidth=2;entryX=1;entryY=0.5;entryDx=0;entryDy=0;exitX=1;exitY=0.5;exitDx=0;exitDy=0;" edge="1" parent="1" source="L20JCUs4-hli7f1_nL3h-75" target="L20JCUs4-hli7f1_nL3h-79">
          <mxGeometry width="50" height="50" relative="1" as="geometry">
            <mxPoint x="495" y="1450" as="sourcePoint" />
            <mxPoint x="565" y="1785" as="targetPoint" />
            <Array as="points">
              <mxPoint x="570" y="1560" />
            </Array>
          </mxGeometry>
        </mxCell>
        <mxCell id="-uXi19Nw9KmrG-sfpI9Z-26" value="Include" style="edgeLabel;html=1;align=center;verticalAlign=middle;resizable=0;points=[];" vertex="1" connectable="0" parent="-uXi19Nw9KmrG-sfpI9Z-25">
          <mxGeometry x="0.5335" y="1" relative="1" as="geometry">
            <mxPoint x="-286.86" y="36.510000000000005" as="offset" />
          </mxGeometry>
        </mxCell>
        <mxCell id="-uXi19Nw9KmrG-sfpI9Z-27" value="" style="endArrow=none;dashed=1;html=1;dashPattern=1 3;strokeWidth=2;entryX=0;entryY=0.5;entryDx=0;entryDy=0;exitX=1;exitY=0.5;exitDx=0;exitDy=0;" edge="1" parent="1" source="L20JCUs4-hli7f1_nL3h-76" target="L20JCUs4-hli7f1_nL3h-71">
          <mxGeometry width="50" height="50" relative="1" as="geometry">
            <mxPoint x="470" y="1515" as="sourcePoint" />
            <mxPoint x="520" y="1465" as="targetPoint" />
          </mxGeometry>
        </mxCell>
        <mxCell id="-uXi19Nw9KmrG-sfpI9Z-28" value="include" style="text;html=1;strokeColor=none;fillColor=none;align=center;verticalAlign=middle;whiteSpace=wrap;rounded=0;" vertex="1" parent="1">
          <mxGeometry x="530" y="1490" width="40" height="20" as="geometry" />
        </mxCell>
        <mxCell id="-uXi19Nw9KmrG-sfpI9Z-29" value="" style="endArrow=classic;html=1;" edge="1" parent="1" target="-uXi19Nw9KmrG-sfpI9Z-30">
          <mxGeometry width="50" height="50" relative="1" as="geometry">
            <mxPoint x="260" y="1820" as="sourcePoint" />
            <mxPoint x="310" y="1790" as="targetPoint" />
          </mxGeometry>
        </mxCell>
        <mxCell id="-uXi19Nw9KmrG-sfpI9Z-30" value="Realizacja transakcji i organizacja wysyłki" style="ellipse;whiteSpace=wrap;html=1;" vertex="1" parent="1">
          <mxGeometry x="310" y="1780" width="140" height="80" as="geometry" />
        </mxCell>
        <mxCell id="-uXi19Nw9KmrG-sfpI9Z-31" value="Extends" style="endArrow=block;endSize=16;endFill=0;html=1;exitX=0;exitY=0.5;exitDx=0;exitDy=0;entryX=1;entryY=0.5;entryDx=0;entryDy=0;" edge="1" parent="1" source="L20JCUs4-hli7f1_nL3h-113">
          <mxGeometry x="-0.3381" y="-16" width="160" relative="1" as="geometry">
            <mxPoint x="482.57359312880703" y="2040.003398282202" as="sourcePoint" />
            <mxPoint x="455" y="2020.6100000000001" as="targetPoint" />
            <mxPoint as="offset" />
          </mxGeometry>
        </mxCell>
        <mxCell id="-uXi19Nw9KmrG-sfpI9Z-33" value="Extends" style="endArrow=block;endSize=16;endFill=0;html=1;exitX=0.013;exitY=0.68;exitDx=0;exitDy=0;exitPerimeter=0;entryX=1;entryY=0.5;entryDx=0;entryDy=0;" edge="1" parent="1" source="L20JCUs4-hli7f1_nL3h-114" target="L20JCUs4-hli7f1_nL3h-112">
          <mxGeometry x="-0.3381" y="-16" width="160" relative="1" as="geometry">
            <mxPoint x="497.5" y="2036.39" as="sourcePoint" />
            <mxPoint x="449" y="2020" as="targetPoint" />
            <mxPoint as="offset" />
          </mxGeometry>
        </mxCell>
        <mxCell id="-uXi19Nw9KmrG-sfpI9Z-34" value="" style="endArrow=none;dashed=1;html=1;dashPattern=1 3;strokeWidth=2;exitX=0;exitY=0;exitDx=0;exitDy=0;" edge="1" parent="1" source="L20JCUs4-hli7f1_nL3h-104">
          <mxGeometry width="50" height="50" relative="1" as="geometry">
            <mxPoint x="315" y="1570" as="sourcePoint" />
            <mxPoint x="365" y="1520" as="targetPoint" />
            <Array as="points">
              <mxPoint x="260" y="1640" />
            </Array>
          </mxGeometry>
        </mxCell>
        <mxCell id="-uXi19Nw9KmrG-sfpI9Z-35" value="Include" style="edgeLabel;html=1;align=center;verticalAlign=middle;resizable=0;points=[];" vertex="1" connectable="0" parent="1">
          <mxGeometry x="591.2387184030356" y="1599.6953019668213" as="geometry" />
        </mxCell>
      </root>
    </mxGraphModel>
  </diagram>
</mxfile>
